# xmcd
#
# Track frame offsets:
#	150
#	15096
#	28953
#	43360
#	56215
#	76894
#	89892
#	108263
#	121715
#	132657
#	146156
#	157147
#
# Disc length: 2298 seconds
#
# Revision: 4
# Processed by: cddbd v1.5.2PL0 Copyright (c) Steve Scherf et al.
# Submitted via: audiograbber 1.83.01
#
DISCID=ac08f80c
DTITLE=MS® - Las Mejores Canciones De Nuestra Vida Vol 1
DYEAR=1998
DGENRE=Ballad
TTITLE0=Jeannette - Soy Rebelde
TTITLE1=Tony Ronald - Help Ayudame
TTITLE2=Nicola Di Bari - Mi Corazon Es Un Gitano
TTITLE3=Mari Trini - Cuando Me Acaricias
TTITLE4=Karina - Luna Blanca
TTITLE5=Christophe - Aline
TTITLE6=Danielle Licari - Concierto Para Una Voz
TTITLE7=Adamo - Mis Manos En Tu Cintura
TTITLE8=Les Surfs - Tu Seras Mi Baby
TTITLE9=Marie Laforet - La Playa
TTITLE10=Rita Pavone - Que Me Importa El Mundo
TTITLE11=Juan Bau - Jurame
EXTD=MS®
EXTT0=
EXTT1=
EXTT2=
EXTT3=
EXTT4=
EXTT5=
EXTT6=
EXTT7=
EXTT8=
EXTT9=
EXTT10=
EXTT11=
PLAYORDER=
